<svg xmlns="http://www.w3.org/2000/svg" width="250" height="414" fill="none" viewBox="0 0 250 414">
  <g clip-path="url(#a)">
    <path fill="#DD565B" d="m79.309 251.375-19.323-12.02s-7.841-15.845-1.457-30.047c6.38-14.211 23.514-14.572 23.514-14.572l12.398 1.276 17.867 10.565 33.727-11.837L169 190s20.235 11.292 21.513 20.031c1.277 8.744 3.1 15.845-1.278 21.491l-30.444 24.95-1.094 15.117 2.368 16.206s2.006 2.549.728 4.736c-1.278 2.187-30.627 10.016-52.501 8.195-21.875-1.821-34.09-7.468-34.09-7.468s-.545-1.368.183-2.365c.729-.998-.636-2.457-.274-3.551.361-1.093 1.456-1.546 1.456-2.278s-.545-1.73-.275-2.64c.27-.911 2.368-5.921 2.368-6.465 0-.545-1.73-2.187-1.548-3.551.183-1.363 1.548-.819 3.192-21.033h.005Z"/>
    <path fill="#E58A96" d="M83.876 292.871c-1.744-3.05-2.617-5.664-.872-8.278-.872 0-1.745-.435-1.745-1.307.436-.871 2.18-1.742 1.745-3.049l-1.309-1.307c.873 0 1.309-1.307.873-1.307-.24-2.658.187-5.576.763-8.474l-3.659-38.171c0 29.236-3.41 40.067-3.593 41.43-.183 1.364 1.548 3.006 1.548 3.551 0 .544-2.098 5.554-2.368 6.465-.275.91.275 1.912.275 2.64 0 .727-1.095 1.185-1.457 2.278-.362 1.094 1.003 2.549.275 3.551-.728 1.002-.183 2.365-.183 2.365s2.886 1.334 8.364 2.911c.658-1.36 1.692-2.61 1.343-3.303v.005Z"/>
    <path fill="#E7D6CB" d="m158.791 256.472 3.737-26.134s-.366-2.732 1.457-4.462c1.823-1.729 19.777-16.371 26.07-17.522 0 0 2.385 9.759 1.74 17.008 0 0-.737 3.791-2.56 6.156-1.823 2.366-30.444 24.95-30.444 24.95v.004ZM56.98 213.743s17.405 9.768 22.69 17.235l-.366 20.397-19.323-12.02s-6.372-13.527-3.005-25.612h.004Z"/>
    <path fill="#1D4D76" d="m160.484 244.631 19.638-18.162 4.923-3.277 6.755-4.265-.715-5.184s-13.558 8.766-17.522 11.907c-3.964 3.141-11.757 9.697-11.757 9.697l-1.313 9.284h-.009Zm-80.809-.544s-13.266-12.02-22.951-15.17c0 0-.807-4.997-.698-7.136 0 0 19.82 9.563 23.65 15.753v6.557-.004Zm4.889-48.994 28.29 18.959L169.001 190l-22.969 4.736-33.728 11.836-17.862-10.564-9.877-.915Z"/>
    <path fill="#A32F2D" d="M157.697 271.589s-4.557 18.027-9.297 20.763c-4.741 2.732-15.896 7.393-15.896 7.393s20.998-2.866 26.288-6.038c0 0 4.648-.806 1.277-5.907l-2.368-16.207-.004-.004Z"/>
    <path fill="#EEDBD3" d="m58.29 210.924 7.373-3.872a.674.674 0 0 1 .633 0l7.374 3.872a.679.679 0 0 0 .986-.714l-1.409-8.203a.673.673 0 0 1 .196-.602l5.966-5.807a.66.66 0 0 0 .188-.61c-4.932.68-16.214 3.407-21.129 14.346a27.651 27.651 0 0 0-.667 1.643.644.644 0 0 0 .488-.053Zm113.501-19.198a.58.58 0 0 0-.292.954l4.845 5.214c.131.14.183.336.139.523l-1.552 6.94a.581.581 0 0 0 .811.654l6.459-2.989a.592.592 0 0 1 .54.026l6.127 3.62a.583.583 0 0 0 .323.083c-3.432-5.877-12.681-12.107-17.4-15.025Z"/>
    <path fill="#A44238" d="M177.731 195.585a104.139 104.139 0 0 0-6.009-3.986L169.027 190l-28.058 12.02c10.763-1.011 23.004-3.006 36.762-6.431v-.004Z"/>
    <path fill="#E4C5AE" d="M171.791 191.726a.58.58 0 0 0-.292.954l3.353 3.607c.921-.218 1.849-.444 2.783-.675a106.05 106.05 0 0 0-5.844-3.886Z"/>
    <path fill="#A44238" d="m90.25 198.896-5.674-3.803L83 194.5s-1.815.257-3.233.445c-.052.013-.109.03-.157.043 0 0 3.485 1.948 10.641 3.908Z"/>
    <path fill="#13354C" d="M122.889 202.865c5.481.017 11.504-.231 18.076-.85L169.027 190l-22.969 4.736-23.165 8.129h-.004Z"/>
    <path fill="#A32F2D" d="M164.316 219.868s-2.137 8.909-1.784 10.469l-3.737 26.135 15.132-12.068s-7.191-1.329-9.611-24.536Z"/>
    <path fill="#13354C" d="M94.468 196.012 83 194.5l7.264 4.4c3.62.989 8.172 1.983 13.698 2.728l-9.499-5.616h.005Z"/>
    <path fill="#E4C5AE" d="m168.254 237.447-7.767 7.241-1.692 11.841 15.132-12.063s-2.926-.597-5.673-7.014v-.005Zm-3.274-12.385c-.467.396-.811.697-.99.871-1.012.958-1.347 2.222-1.448 3.163 0 .03-.008.061-.008.091v.039a5.96 5.96 0 0 0 0 1.172l-.716 4.997c.153-.13 2.098-1.816 4.492-3.807a69.194 69.194 0 0 1-1.33-6.518v-.008Z"/>
    <path fill="#163350" d="M166.31 231.579c-2.394 1.991-4.339 3.69-4.492 3.821l-1.33 9.297 7.767-7.25c-.676-1.577-1.339-3.502-1.945-5.868Z"/>
    <path fill="#E58A96" d="M73.445 201.405a.671.671 0 0 0-.197.601l1.409 8.204a.678.678 0 0 1-.986.714l-7.374-3.873a.68.68 0 0 0-.632 0l-7.375 3.873a.668.668 0 0 1-.445.061 27.87 27.87 0 0 0-.859 2.758c.131.074 7.728 4.348 14.378 9.388 2.072-10.586 6.433-20.924 15.316-25.303 0 0-4.03-1.337-7.074-2.657a.646.646 0 0 1-.196.422l-5.965 5.808v.004Z"/>
    <path fill="#FDF5F0" d="M69.803 236.197c-4.125-2.954-8.905-5.916-13.043-7.271 1.155 6.025 3.227 10.425 3.227 10.425l9.664 6.012a125.51 125.51 0 0 1 .152-9.166Zm-13.771-14.416c.148.074 7.68 3.716 14.317 7.942a86.298 86.298 0 0 1 1.016-6.592c-6.646-5.036-14.247-9.314-14.378-9.388-.698 2.727-.968 5.446-.955 8.038Z"/>
    <path fill="#3D9FD4" d="M56.031 221.781c0 .728.026 1.447.07 2.148.109 1.307.297 2.749.436 3.747a49 49 0 0 0 .223 1.25c4.138 1.355 8.922 4.317 13.043 7.271a107.6 107.6 0 0 1 .545-6.474c-6.633-4.226-14.164-7.868-14.317-7.942Z"/>
    <path fill="#FDF5F0" d="M70.51 197.585c-.193.087-.384.178-.572.27l-.554.274-.126.066c-4.108 2.13-8.238 5.563-10.728 11.109a28.624 28.624 0 0 0-.68 1.681.64.64 0 0 0 .444-.061l7.375-3.873a.68.68 0 0 1 .632 0l7.374 3.873a.679.679 0 0 0 .986-.714l-1.409-8.203a.672.672 0 0 1 .197-.602l5.965-5.807a.655.655 0 0 0 .197-.422c-.11-.048-.214-.096-.323-.14-2.159.318-5.373 1.011-8.726 2.531a1.27 1.27 0 0 1-.053.026v-.008Z"/>
  </g>
  <path fill="#E7D6CB" d="M100.902 249.209c-4.423-2.453-6.635-6.283-6.635-11.49 0-2.703.696-5.156 2.088-7.359 1.44-2.253 3.603-4.031 6.485-5.332 2.882-1.352 6.436-2.028 10.66-2.028s7.778.676 10.66 2.028c2.882 1.301 5.019 3.079 6.411 5.332 1.441 2.203 2.162 4.656 2.162 7.359 0 2.654-.597 4.957-1.789 6.909-1.143 1.903-2.759 3.43-4.846 4.581 2.584 1.352 4.547 3.155 5.889 5.408 1.342 2.253 2.013 4.906 2.013 7.96 0 3.655-.919 6.809-2.758 9.463-1.839 2.603-4.324 4.581-7.455 5.932-3.081 1.352-6.51 2.028-10.287 2.028-3.777 0-7.231-.676-10.362-2.028-3.081-1.351-5.541-3.329-7.38-5.932-1.839-2.654-2.758-5.808-2.758-9.463 0-3.054.67-5.707 2.013-7.96 1.341-2.253 3.305-4.056 5.889-5.408Zm17.518-9.162c0-1.752-.447-3.104-1.342-4.055-.894-1.001-2.087-1.502-3.578-1.502-1.441 0-2.634.501-3.578 1.502-.895 1.001-1.342 2.353-1.342 4.055 0 1.703.447 3.029 1.342 3.981.944.951 2.137 1.427 3.578 1.427 1.441 0 2.609-.476 3.504-1.427.944-.952 1.416-2.278 1.416-3.981Zm-4.92 15.471c-1.888 0-3.429.576-4.622 1.727-1.143 1.102-1.714 2.603-1.714 4.506 0 1.802.571 3.279 1.714 4.431 1.143 1.151 2.684 1.727 4.622 1.727 1.938 0 3.454-.576 4.547-1.727 1.143-1.152 1.715-2.629 1.715-4.431 0-1.903-.572-3.404-1.715-4.506-1.143-1.151-2.659-1.727-4.547-1.727Z"/>
  <defs>
    <clipPath id="a">
      <path fill="#fff" d="M56 190h136v111H56z"/>
    </clipPath>
  </defs>
</svg>
